<?xml version="1.0" encoding="UTF-8"?>
<svg id="uuid-730d9efb-4e34-4c47-badc-45a3d5acc5e1" data-name="Capa 1" xmlns="http://www.w3.org/2000/svg" viewBox="0 0 469.94 443.91">
  <path d="M222.76.27c14.1-2.2,23.4,10,36.8,8.4,10.2-5.7,23.8-3.7,34.7-3.2,21.2,22.5,49.4,8.5,72.5,28.9,13,23.9,40.5,17.2,54.7,37.8,1.6,21.7,24.5,34.5,34.7,56.8,2.1,14,4.6,28,12.1,42.6,9.1,59.7-19.1,116.9-78.3,136.1-4.6,29.7-17.4,38.1-46.2,46.2.8,10.3,60.4-26.1,55.7,35.7,65.2,13.1-67.9,49.1-100.9,33.1-42-14.7-199.7-15.2-191.3-71-18.3-30.6-75.4-23.8-90.9-65.7-28.7-22.8-10-60.3-14.2-90.4,3.3-17.4,18.5-34.1,13.7-53.1,1.5-20.7,20.2-20,20-35.2,4.4-17.6,19.3-30,36.8-35.7,7.7-10.4,18.6-26.6,30-29.4,21.9-6,41-17.4,59.4-28.4,24.4,5,41.3-7.9,61-13.7l-.3.2ZM222.76,9.77c12.4-1.8,17.6,8.6,30,9.5,12.3-3.2,24.5-5,37.8-4.2,27.1,25.3,65.1,7.3,85.7,44.7,48.7,10.3,24.6,19.8,51.5,44.7,13.6,16,19.6,31.5,24.2,50.5,6,19.4,14.3,48.1,5.3,68.8-24.6,70.7-35.6,47-74.6,79.9-5.7,8.7-8,19.8-10.5,28.4-13.7,9.4-41.7,8.5-41,28.4-19.1-5.4-27-39.3-39.9-53.6,1.2-1.1.8-1.8-1.1-2.1,1.2-1.1.8-1.8-1.1-2.1,1.2-1.1.8-1.8-1.1-2.1,1.2-1.1.8-1.8-1.1-2.1,1.2-1.1.8-1.8-1.1-2.1,1.2-1.1.8-1.8-1.1-2.1-2.6-8.3-8.9-21.8-12.6-30,1.4-1.1,1.4-2.1,0-3.2,20.8-9.1,33.1-26.9,36.8-40.5,14.9-26.4-17.8-48.6-44.1-35.7-17.7,8.4-12.8,31.8-20.5,47.8-10.9,16-32.2,22-37.3,42.6,6.7,33.7-10.3,61.4-40.5,76.2-17.6-5-40.6,27.2-49.9,11,2.3-9.8-.3-13.3-3.2-23.1-17.9-21.4-64.7-18.5-84.1-49.4-14.8-20-30.9-47.6-14.7-73.1-8.1-27.2,15.2-55.8,13.7-83.6,22.1-10.3,13.1-34,34.2-46.8,20.4.3,25.3-28.3,46.8-37.3,22.9-1.8,33.8-15.8,53.6-24.2,24.6.8,41.8-5.6,59.9-15.2h0ZM260.66,258.87c-4.4-2.7-12.7-9.4-18.9-6.8,6.3,5.6,11.4,12.1,15.2,19.4-5.3,40.8,57.9,73.9,35.2,74.6-24.1-12-44-33.5-55.7-56.8-8.2,11.9,7.9,29.9,15.8,39.4,17.9,14.1,30.8,18.4,4.7,27.9-10.4,1.6-20.8,11.1-31,10.5-18.1,5.6-31-9.5-46.2-13.7,55.3-45.7,11.8-74.2,61-103.5,25.6-17.2,6.4-55.8,41-61.5,45,4.4-1.3,87.5-23.1,52-6.5-13-3,13.7,2.1,18.4l-.1.1ZM260.66,258.87c.8.3,1.3,1.1,1.1,2.1-2.3,0-2.6-.6-1.1-2.1ZM261.66,260.97c.8.3,1.3,1.1,1.1,2.1-2.3,0-2.6-.6-1.1-2.1ZM262.76,263.07c.8.3,1.3,1.1,1.1,2.1-2.3,0-2.6-.6-1.1-2.1ZM263.76,265.17c1.7,1.8,1.9,3.6.5,5.3-1.1-1.9-1.3-3.7-.5-5.3ZM264.86,271.47c3.3,13.2,30.6,45.9,23.1,48.9-17.4-14.3-17.3-30.1-23.1-48.9ZM295.26,354.57c20.6-3.4,28.9,27.1,5.8,27.3-2.9,5.2-31.4,6.9-32.1,15.8,24.4,5.6,49.6-.6,72.5,10-1.1,6.7-22.5,2.4-31,3.7-20.8-1.8-35.9-5.3-55.2-8.4-40.6-12.4-83.2-20.1-127.2-28.9,83.5-41.4,37.1,39.9,167.1-19.4l.1-.1ZM364.66,359.77c46.6,5.3,30.8,54-18.4,41-48-4.8,9.4-39.3-21.5-30.5,10.3-10.5,27.7-3.8,39.9-10.5ZM316.36,383.97c8.8,3.8,2.9,13-5.3,10.5-10.7-3.5,2.3-7,5.3-10.5Z" style="fill: #39383a; fill-rule: evenodd; isolation: isolate; opacity: .9; stroke-width: 0px;"/>
  <path d="M314.36,441.17c.6,0,1.2.5,1.3,1.3-3.4,1.3-6.9,1.7-10.3,1.3,3-.9,6.1-1.7,9.1-2.6h-.1Z" style="fill: #fb9b95; fill-rule: evenodd; isolation: isolate; opacity: 0; stroke-width: 0px;"/>
</svg>